<svg width="750" height="500" viewBox="0 0 750 500" fill="none" xmlns="http://www.w3.org/2000/svg">
<g clip-path="url(#clip0_840_3510)">
<path d="M0 552.601L750 552.601L750 -59.7994L0 -59.7994L0 552.601Z" fill="url(#paint0_radial_840_3510)"/>
<path style="mix-blend-mode:overlay" d="M738.596 109.909C757.415 98.9954 763.824 74.8925 752.91 56.0735C741.997 37.2545 717.894 30.8457 699.075 41.7591C680.256 52.6725 673.847 76.7754 684.76 95.5944C695.674 114.413 719.777 120.822 738.596 109.909Z" fill="url(#paint1_radial_840_3510)"/>
<path style="mix-blend-mode:multiply" d="M756.31 341.55L750.57 338.01L742.42 342.08L719.12 328.36L705.87 322.91L695.11 318.32L688.01 325.24L675.69 347.9L665.32 357.76L657.77 364.08L641.17 364.46L633.52 373.58L626.63 384.11L618.53 389.94L596.8 422.28L588.95 415.93L578.86 417.48L539.9 454.36L472 504.8L556 501.91H756.14L756.31 341.55Z" fill="url(#paint2_linear_840_3510)"/>
<path style="mix-blend-mode:multiply" d="M453.131 482.049C433.131 481.739 404.641 467.669 384.991 471.999C371.451 467.309 350.481 452.069 336.741 448.229C332.681 443.099 323.531 434.659 318.471 431.349L297.001 436.439C271.221 427.439 225.341 387.609 204.801 365.659C181.551 373.659 180.421 383.119 152.331 379.129L125.841 355.899C118.581 360.599 104.391 359.019 96.9206 355.949C86.5806 343.649 59.2106 310.999 46.1806 304.729L19.5306 344.389L-1.85938 340.589V501.909L202.211 499.189L204.411 501.909H456.941L453.131 482.049Z" fill="url(#paint3_linear_840_3510)"/>
<path style="mix-blend-mode:multiply" d="M369.272 501.91H441.082L420.712 478.52C408.242 476.72 389.712 471.2 377.712 467.08C373.292 469.08 365.712 464.7 361.972 461.8C337.972 445.41 309.582 433.06 286.412 414.03L250.162 427L237.002 416.49L192.652 439.49C188.512 433.49 178.952 427.66 172.802 427.06C143.502 434.54 83.1119 479.26 57.6719 499.88C114.242 502.53 309.432 501.93 369.272 501.91Z" fill="url(#paint4_linear_840_3510)"/>
<path style="mix-blend-mode:multiply" d="M756.141 501.909L748.141 442.329L695.141 442.149C680.051 439.709 644.201 434.479 630.921 447.059C611.831 444.169 581.241 427.769 561.801 429.529C556.501 423.809 544.871 416.399 538.111 414.729L511.241 435.109C484.381 437.039 480.821 427.019 458.691 417.879L445.831 432.749C437.071 427.889 420.551 420.599 412.191 414.689C389.521 436.899 373.191 460.819 342.191 447.549C322.761 465.439 295.551 478.119 272.821 488.079C252.221 483.849 222.041 497.769 201.111 497.929L200.301 501.929L756.141 501.909Z" fill="url(#paint5_linear_840_3510)"/>
<path d="M754.081 281.8C744.941 297.05 725.861 327.39 716.081 341.75C711.471 344.81 695.731 349.15 690.511 350.66L643.701 412C617.871 421.4 578.061 452.62 554.481 467.62L547.351 464.62C529.201 479.62 500.131 487.46 478.891 485.11C469.071 478.51 433.571 454.11 424.021 449.11C397.731 466.98 378.231 481.11 347.921 466.68C340.158 469.95 332.859 474.227 326.211 479.4C319.781 480.04 307.211 483.34 301.101 485.91C287.361 478.68 273.351 472.59 269.551 476.53L232.731 439L224.651 445.7C200.051 434.27 187.541 430.82 170.591 402.11L162.191 406.87C135.701 396.43 141.091 385.32 123.191 375.05C112.661 379.68 98.0906 387.05 85.3406 394.32C71.0006 380.57 53.3006 355.41 43.4206 336C27.0506 329.6 12.5206 305.56 2.83063 288.42L-1.85938 290.42V501.92H756.311V282.05L754.081 281.8Z" fill="black"/>
<path d="M699.711 128.239C699.711 128.437 699.652 128.63 699.542 128.795C699.433 128.959 699.276 129.087 699.094 129.163C698.911 129.239 698.71 129.259 698.516 129.22C698.322 129.181 698.144 129.086 698.004 128.946C697.864 128.807 697.769 128.628 697.73 128.434C697.692 128.24 697.711 128.039 697.787 127.857C697.863 127.674 697.991 127.518 698.155 127.408C698.32 127.298 698.513 127.239 698.711 127.239C698.976 127.239 699.231 127.345 699.418 127.532C699.606 127.72 699.711 127.974 699.711 128.239Z" fill="white"/>
<path d="M643.781 37.7393C643.781 37.937 643.723 38.1304 643.613 38.2948C643.503 38.4593 643.347 38.5874 643.164 38.6631C642.981 38.7388 642.78 38.7586 642.586 38.72C642.392 38.6815 642.214 38.5862 642.074 38.4464C641.934 38.3065 641.839 38.1283 641.8 37.9343C641.762 37.7404 641.782 37.5393 641.857 37.3566C641.933 37.1738 642.061 37.0177 642.226 36.9078C642.39 36.7979 642.584 36.7393 642.781 36.7393C643.047 36.7393 643.301 36.8446 643.488 37.0322C643.676 37.2197 643.781 37.474 643.781 37.7393Z" fill="white"/>
<path d="M666.33 139.16C666.332 139.449 666.248 139.732 666.089 139.974C665.93 140.215 665.702 140.404 665.436 140.516C665.169 140.628 664.875 140.658 664.591 140.603C664.308 140.548 664.046 140.41 663.841 140.206C663.636 140.002 663.496 139.742 663.439 139.458C663.382 139.175 663.41 138.881 663.52 138.614C663.631 138.346 663.818 138.118 664.058 137.957C664.298 137.796 664.581 137.71 664.87 137.71C665.256 137.71 665.625 137.862 665.899 138.134C666.172 138.406 666.327 138.774 666.33 139.16Z" fill="white"/>
<path d="M636.112 78.6993C636.919 78.6993 637.572 78.0456 637.572 77.2393C637.572 76.433 636.919 75.7793 636.112 75.7793C635.306 75.7793 634.652 76.433 634.652 77.2393C634.652 78.0456 635.306 78.6993 636.112 78.6993Z" fill="white"/>
<path d="M714.4 31.2693C714.402 31.5585 714.318 31.8418 714.159 32.0832C714 32.3246 713.773 32.5133 713.506 32.6253C713.239 32.7373 712.946 32.7677 712.662 32.7125C712.378 32.6573 712.117 32.519 711.912 32.3153C711.706 32.1115 711.566 31.8513 711.509 31.5679C711.452 31.2844 711.48 30.9903 711.591 30.723C711.701 30.4556 711.888 30.227 712.128 30.0661C712.369 29.9052 712.651 29.8193 712.94 29.8193C713.326 29.8193 713.696 29.9718 713.969 30.2434C714.243 30.5151 714.398 30.8839 714.4 31.2693Z" fill="white"/>
<path d="M725.002 27.3594C725.002 27.6482 724.916 27.9305 724.756 28.1705C724.596 28.4106 724.368 28.5978 724.101 28.7083C723.834 28.8188 723.54 28.8477 723.257 28.7914C722.974 28.735 722.714 28.596 722.51 28.3918C722.305 28.1876 722.166 27.9275 722.11 27.6442C722.054 27.361 722.083 27.0675 722.193 26.8007C722.304 26.5339 722.491 26.3059 722.731 26.1455C722.971 25.985 723.253 25.8994 723.542 25.8994C723.929 25.8994 724.301 26.0532 724.574 26.327C724.848 26.6008 725.002 26.9722 725.002 27.3594V27.3594Z" fill="white"/>
<path d="M468.412 65.3993C468.412 65.6902 468.325 65.9744 468.162 66.2154C467.999 66.4565 467.768 66.6434 467.499 66.7523C467.229 66.8612 466.933 66.887 466.648 66.8265C466.364 66.766 466.104 66.6219 465.902 66.4127C465.7 66.2035 465.565 65.9387 465.514 65.6523C465.464 65.3658 465.5 65.0708 465.618 64.8051C465.736 64.5393 465.931 64.315 466.178 64.1607C466.424 64.0065 466.711 63.9294 467.002 63.9393C467.381 63.9523 467.739 64.1118 468.002 64.3842C468.265 64.6567 468.412 65.0206 468.412 65.3993V65.3993Z" fill="white"/>
<path d="M710.002 97.1094C710.002 97.3982 709.916 97.6805 709.756 97.9206C709.596 98.1607 709.368 98.3478 709.101 98.4583C708.834 98.5688 708.54 98.5977 708.257 98.5414C707.974 98.4851 707.714 98.346 707.51 98.1418C707.305 97.9376 707.166 97.6775 707.11 97.3943C707.054 97.1111 707.083 96.8175 707.193 96.5507C707.304 96.284 707.491 96.0559 707.731 95.8955C707.971 95.7351 708.253 95.6494 708.542 95.6494C708.734 95.6481 708.925 95.685 709.102 95.7579C709.28 95.8308 709.442 95.9383 709.577 96.0741C709.713 96.2099 709.821 96.3714 709.894 96.5492C709.967 96.7269 710.003 96.9173 710.002 97.1094V97.1094Z" fill="white"/>
<path d="M711.491 171.68C712.298 171.68 712.951 171.026 712.951 170.22C712.951 169.413 712.298 168.76 711.491 168.76C710.685 168.76 710.031 169.413 710.031 170.22C710.031 171.026 710.685 171.68 711.491 171.68Z" fill="white"/>
<path d="M677.732 260.599C677.734 260.889 677.651 261.172 677.491 261.413C677.332 261.655 677.105 261.843 676.838 261.955C676.572 262.067 676.278 262.098 675.994 262.043C675.71 261.987 675.449 261.849 675.244 261.645C675.039 261.442 674.898 261.181 674.841 260.898C674.784 260.614 674.813 260.32 674.923 260.053C675.033 259.786 675.22 259.557 675.46 259.396C675.701 259.235 675.983 259.149 676.272 259.149C676.658 259.149 677.028 259.302 677.301 259.574C677.575 259.845 677.73 260.214 677.732 260.599V260.599Z" fill="white"/>
<path d="M731.111 208.779C731.113 209.068 731.029 209.352 730.87 209.593C730.711 209.834 730.484 210.023 730.217 210.135C729.95 210.247 729.657 210.277 729.373 210.222C729.089 210.167 728.828 210.029 728.623 209.825C728.417 209.621 728.277 209.361 728.22 209.078C728.163 208.794 728.191 208.5 728.302 208.233C728.412 207.965 728.599 207.737 728.839 207.576C729.08 207.415 729.362 207.329 729.651 207.329C730.037 207.329 730.407 207.482 730.68 207.753C730.954 208.025 731.109 208.394 731.111 208.779Z" fill="white"/>
<path d="M447.4 234.79C447.402 235.079 447.318 235.362 447.159 235.604C447 235.845 446.773 236.034 446.506 236.146C446.24 236.258 445.946 236.288 445.662 236.233C445.378 236.178 445.117 236.04 444.912 235.836C444.706 235.632 444.566 235.372 444.509 235.088C444.452 234.805 444.48 234.511 444.591 234.243C444.701 233.976 444.888 233.747 445.128 233.587C445.369 233.426 445.651 233.34 445.94 233.34C446.326 233.34 446.696 233.492 446.969 233.764C447.243 234.036 447.398 234.404 447.4 234.79Z" fill="white"/>
<path d="M523.162 200.18C523.162 200.469 523.076 200.752 522.915 200.992C522.755 201.232 522.526 201.419 522.259 201.53C521.991 201.64 521.697 201.668 521.414 201.611C521.13 201.554 520.87 201.414 520.666 201.209C520.462 201.003 520.324 200.742 520.269 200.458C520.214 200.175 520.244 199.881 520.356 199.614C520.468 199.347 520.657 199.12 520.898 198.961C521.14 198.802 521.423 198.718 521.712 198.72C521.903 198.72 522.093 198.758 522.269 198.831C522.446 198.905 522.606 199.012 522.741 199.148C522.876 199.284 522.982 199.445 523.055 199.622C523.127 199.799 523.163 199.988 523.162 200.18V200.18Z" fill="white"/>
<path d="M624.94 167.769C624.941 168.059 624.857 168.343 624.698 168.584C624.538 168.826 624.31 169.015 624.043 169.126C623.776 169.238 623.481 169.268 623.197 169.212C622.913 169.156 622.652 169.016 622.447 168.812C622.242 168.607 622.103 168.346 622.047 168.062C621.991 167.778 622.021 167.483 622.133 167.216C622.244 166.949 622.433 166.721 622.675 166.561C622.916 166.402 623.2 166.317 623.489 166.319C623.874 166.319 624.243 166.472 624.515 166.744C624.787 167.016 624.94 167.385 624.94 167.769V167.769Z" fill="white"/>
<path d="M562.881 139.309C562.883 139.599 562.799 139.882 562.64 140.123C562.48 140.365 562.253 140.553 561.987 140.665C561.72 140.777 561.426 140.808 561.142 140.753C560.858 140.697 560.597 140.559 560.392 140.355C560.187 140.152 560.047 139.891 559.99 139.608C559.933 139.324 559.961 139.03 560.071 138.763C560.181 138.496 560.368 138.267 560.609 138.106C560.849 137.945 561.132 137.859 561.421 137.859C561.806 137.859 562.176 138.012 562.45 138.283C562.723 138.555 562.878 138.924 562.881 139.309V139.309Z" fill="white"/>
<path d="M372.002 86.87C372.004 87.1596 371.92 87.4432 371.76 87.6848C371.6 87.9265 371.373 88.1151 371.105 88.2269C370.838 88.3386 370.544 88.3684 370.26 88.3124C369.976 88.2563 369.714 88.1171 369.51 87.9123C369.305 87.7075 369.166 87.4465 369.11 87.1623C369.054 86.8782 369.083 86.5838 369.195 86.3166C369.307 86.0494 369.496 85.8215 369.737 85.6618C369.979 85.5022 370.262 85.418 370.552 85.42C370.937 85.42 371.305 85.5727 371.577 85.8447C371.849 86.1166 372.002 86.4854 372.002 86.87V86.87Z" fill="white"/>
<path d="M473.23 36.13C474.036 36.13 474.69 35.4763 474.69 34.67C474.69 33.8636 474.036 33.21 473.23 33.21C472.423 33.21 471.77 33.8636 471.77 34.67C471.77 35.4763 472.423 36.13 473.23 36.13Z" fill="white"/>
<path d="M448.85 192.73C448.85 193.019 448.764 193.301 448.603 193.542C448.442 193.782 448.213 193.969 447.946 194.079C447.679 194.19 447.385 194.218 447.101 194.161C446.818 194.104 446.558 193.964 446.354 193.758C446.15 193.553 446.012 193.292 445.957 193.008C445.901 192.724 445.932 192.43 446.044 192.164C446.156 191.897 446.344 191.67 446.586 191.511C446.827 191.352 447.11 191.268 447.4 191.27C447.785 191.272 448.154 191.427 448.426 191.701C448.697 191.974 448.85 192.344 448.85 192.73V192.73Z" fill="white"/>
<path d="M616.729 122.72C617.536 122.72 618.19 122.066 618.19 121.26C618.19 120.453 617.536 119.8 616.729 119.8C615.923 119.8 615.27 120.453 615.27 121.26C615.27 122.066 615.923 122.72 616.729 122.72Z" fill="white"/>
<path d="M559.972 27.1895C560.778 27.1895 561.432 26.5359 561.432 25.7295C561.432 24.9232 560.778 24.2695 559.972 24.2695C559.165 24.2695 558.512 24.9232 558.512 25.7295C558.512 26.5359 559.165 27.1895 559.972 27.1895Z" fill="white"/>
<path d="M679.952 162.84C680.759 162.84 681.412 162.186 681.412 161.38C681.412 160.574 680.759 159.92 679.952 159.92C679.146 159.92 678.492 160.574 678.492 161.38C678.492 162.186 679.146 162.84 679.952 162.84Z" fill="white"/>
<path d="M558.511 230.999C559.317 230.999 559.971 230.345 559.971 229.539C559.971 228.733 559.317 228.079 558.511 228.079C557.704 228.079 557.051 228.733 557.051 229.539C557.051 230.345 557.704 230.999 558.511 230.999Z" fill="white"/>
<path d="M692.701 250.199C692.701 250.488 692.615 250.771 692.455 251.011C692.294 251.252 692.065 251.439 691.798 251.549C691.53 251.659 691.236 251.688 690.953 251.63C690.669 251.573 690.409 251.433 690.205 251.228C690.002 251.023 689.863 250.762 689.808 250.478C689.753 250.194 689.783 249.9 689.895 249.634C690.007 249.367 690.196 249.14 690.437 248.98C690.679 248.821 690.962 248.737 691.251 248.739C691.637 248.742 692.006 248.897 692.277 249.17C692.549 249.444 692.701 249.814 692.701 250.199V250.199Z" fill="white"/>
<path d="M616.729 203.369C617.536 203.369 618.19 202.716 618.19 201.909C618.19 201.103 617.536 200.449 616.729 200.449C615.923 200.449 615.27 201.103 615.27 201.909C615.27 202.716 615.923 203.369 616.729 203.369Z" fill="white"/>
<path d="M544.819 225.329C545.626 225.329 546.279 224.676 546.279 223.869C546.279 223.063 545.626 222.409 544.819 222.409C544.013 222.409 543.359 223.063 543.359 223.869C543.359 224.676 544.013 225.329 544.819 225.329Z" fill="white"/>
<path d="M450.529 73.8096C450.529 74.0988 450.443 74.3815 450.283 74.6218C450.122 74.8621 449.893 75.0492 449.626 75.1594C449.358 75.2696 449.064 75.298 448.781 75.2408C448.497 75.1837 448.237 75.0436 448.033 74.8384C447.83 74.6332 447.691 74.3722 447.636 74.0883C447.581 73.8044 447.611 73.5106 447.723 73.244C447.835 72.9774 448.024 72.75 448.266 72.5908C448.507 72.4316 448.79 72.3477 449.079 72.3496C449.271 72.3496 449.46 72.3875 449.637 72.461C449.813 72.5345 449.973 72.6422 450.108 72.7779C450.243 72.9136 450.35 73.0746 450.422 73.2517C450.494 73.4288 450.531 73.6184 450.529 73.8096V73.8096Z" fill="white"/>
<path d="M445.939 201.63C445.941 201.919 445.858 202.202 445.698 202.444C445.539 202.685 445.312 202.874 445.045 202.986C444.779 203.098 444.485 203.128 444.201 203.073C443.917 203.018 443.656 202.879 443.451 202.676C443.246 202.472 443.105 202.212 443.048 201.928C442.991 201.645 443.02 201.351 443.13 201.083C443.24 200.816 443.427 200.587 443.667 200.426C443.908 200.266 444.19 200.18 444.48 200.18C444.865 200.18 445.235 200.332 445.508 200.604C445.782 200.875 445.937 201.244 445.939 201.63V201.63Z" fill="white"/>
<path d="M186.43 237.31C186.43 237.507 186.371 237.701 186.261 237.865C186.151 238.03 185.995 238.158 185.812 238.233C185.63 238.309 185.429 238.329 185.235 238.29C185.041 238.252 184.862 238.157 184.723 238.017C184.583 237.877 184.487 237.699 184.449 237.505C184.41 237.311 184.43 237.11 184.506 236.927C184.581 236.744 184.71 236.588 184.874 236.478C185.039 236.368 185.232 236.31 185.43 236.31C185.695 236.31 185.949 236.415 186.137 236.602C186.324 236.79 186.43 237.044 186.43 237.31Z" fill="white"/>
<path d="M291.32 199.17C291.32 199.368 291.262 199.561 291.152 199.725C291.042 199.89 290.886 200.018 290.703 200.094C290.52 200.169 290.319 200.189 290.125 200.151C289.931 200.112 289.753 200.017 289.613 199.877C289.473 199.737 289.378 199.559 289.34 199.365C289.301 199.171 289.321 198.97 289.396 198.787C289.472 198.605 289.6 198.448 289.765 198.338C289.929 198.229 290.123 198.17 290.32 198.17C290.586 198.17 290.84 198.275 291.027 198.463C291.215 198.65 291.32 198.905 291.32 199.17Z" fill="white"/>
<path d="M153.049 248.239C153.049 248.528 152.963 248.81 152.803 249.05C152.642 249.291 152.414 249.478 152.148 249.588C151.881 249.699 151.587 249.728 151.304 249.671C151.021 249.615 150.761 249.476 150.557 249.272C150.352 249.068 150.213 248.807 150.157 248.524C150.101 248.241 150.13 247.947 150.24 247.681C150.351 247.414 150.538 247.186 150.778 247.025C151.018 246.865 151.3 246.779 151.589 246.779C151.781 246.778 151.971 246.815 152.149 246.888C152.327 246.961 152.488 247.068 152.624 247.204C152.76 247.34 152.868 247.501 152.94 247.679C153.013 247.857 153.05 248.047 153.049 248.239V248.239Z" fill="white"/>
<path d="M114.002 221.869C114.002 222.158 113.916 222.441 113.755 222.681C113.594 222.922 113.366 223.109 113.098 223.219C112.831 223.329 112.537 223.358 112.254 223.3C111.97 223.243 111.71 223.103 111.506 222.898C111.302 222.693 111.164 222.432 111.109 222.148C111.054 221.864 111.084 221.57 111.196 221.304C111.308 221.037 111.497 220.81 111.738 220.65C111.98 220.491 112.263 220.407 112.552 220.409C112.743 220.409 112.933 220.447 113.109 220.521C113.286 220.594 113.446 220.702 113.581 220.837C113.716 220.973 113.822 221.134 113.895 221.311C113.967 221.488 114.003 221.678 114.002 221.869V221.869Z" fill="white"/>
<path d="M154.881 151.93C154.883 152.219 154.799 152.503 154.639 152.744C154.479 152.986 154.251 153.175 153.984 153.286C153.717 153.398 153.423 153.428 153.139 153.372C152.854 153.316 152.593 153.177 152.389 152.972C152.184 152.767 152.045 152.506 151.989 152.222C151.932 151.938 151.962 151.643 152.074 151.376C152.186 151.109 152.374 150.881 152.616 150.721C152.858 150.562 153.141 150.478 153.431 150.48C153.815 150.48 154.184 150.632 154.456 150.904C154.728 151.176 154.881 151.545 154.881 151.93V151.93Z" fill="white"/>
<path d="M199.67 279.289C199.67 279.578 199.584 279.86 199.424 280.1C199.264 280.34 199.035 280.527 198.769 280.638C198.502 280.748 198.208 280.777 197.925 280.721C197.642 280.665 197.382 280.526 197.178 280.322C196.973 280.117 196.834 279.857 196.778 279.574C196.722 279.291 196.751 278.997 196.861 278.73C196.972 278.464 197.159 278.236 197.399 278.075C197.639 277.915 197.921 277.829 198.21 277.829C198.596 277.832 198.966 277.986 199.239 278.26C199.513 278.533 199.667 278.903 199.67 279.289Z" fill="white"/>
<path d="M54.9122 249.689C54.9141 249.979 54.8299 250.263 54.6703 250.504C54.5106 250.746 54.2827 250.934 54.0155 251.046C53.7483 251.158 53.4539 251.188 53.1698 251.132C52.8857 251.076 52.6246 250.936 52.4198 250.732C52.215 250.527 52.0758 250.266 52.0198 249.982C51.9637 249.698 51.9935 249.403 52.1052 249.136C52.217 248.869 52.4057 248.641 52.6473 248.481C52.8889 248.322 53.1725 248.237 53.4622 248.239C53.8467 248.239 54.2155 248.392 54.4875 248.664C54.7594 248.936 54.9122 249.305 54.9122 249.689V249.689Z" fill="white"/>
<path d="M166.679 271.909C167.485 271.909 168.139 271.256 168.139 270.449C168.139 269.643 167.485 268.989 166.679 268.989C165.872 268.989 165.219 269.643 165.219 270.449C165.219 271.256 165.872 271.909 166.679 271.909Z" fill="white"/>
<path d="M166.682 191.269C166.684 191.559 166.6 191.842 166.441 192.083C166.281 192.325 166.054 192.513 165.787 192.625C165.521 192.737 165.227 192.768 164.943 192.712C164.659 192.657 164.398 192.519 164.193 192.315C163.988 192.111 163.848 191.851 163.791 191.568C163.733 191.284 163.762 190.99 163.872 190.723C163.982 190.456 164.169 190.227 164.41 190.066C164.65 189.905 164.932 189.819 165.222 189.819C165.607 189.819 165.977 189.972 166.251 190.243C166.524 190.515 166.679 190.884 166.682 191.269V191.269Z" fill="white"/>
<path d="M185.881 123.67C185.883 123.959 185.799 124.243 185.639 124.485C185.479 124.726 185.251 124.915 184.984 125.027C184.717 125.138 184.423 125.168 184.139 125.112C183.854 125.056 183.593 124.917 183.389 124.712C183.184 124.507 183.045 124.246 182.989 123.962C182.932 123.678 182.962 123.384 183.074 123.116C183.186 122.849 183.374 122.621 183.616 122.462C183.858 122.302 184.141 122.218 184.431 122.22C184.815 122.22 185.184 122.373 185.456 122.644C185.728 122.916 185.881 123.285 185.881 123.67V123.67Z" fill="white"/>
<path d="M671.952 115.279C672.759 115.279 673.412 114.626 673.412 113.819C673.412 113.013 672.759 112.359 671.952 112.359C671.146 112.359 670.492 113.013 670.492 113.819C670.492 114.626 671.146 115.279 671.952 115.279Z" fill="white"/>
<path d="M631.322 65.3995C631.322 65.6882 631.237 65.9705 631.076 66.2106C630.916 66.4507 630.688 66.6378 630.421 66.7483C630.154 66.8588 629.861 66.8877 629.578 66.8314C629.294 66.7751 629.034 66.636 628.83 66.4318C628.626 66.2276 628.487 65.9675 628.43 65.6843C628.374 65.4011 628.403 65.1075 628.513 64.8407C628.624 64.574 628.811 64.3459 629.051 64.1855C629.291 64.0251 629.574 63.9395 629.862 63.9395C630.249 63.9421 630.619 64.0967 630.892 64.37C631.165 64.6432 631.32 65.013 631.322 65.3995V65.3995Z" fill="white"/>
<path d="M30.002 148.999C30.002 149.288 29.9164 149.57 29.756 149.81C29.5956 150.05 29.3675 150.237 29.1008 150.348C28.834 150.458 28.5404 150.487 28.2572 150.431C27.974 150.375 27.7138 150.236 27.5097 150.031C27.3055 149.827 27.1664 149.567 27.1101 149.284C27.0538 149.001 27.0827 148.707 27.1932 148.44C27.3037 148.174 27.4908 147.946 27.7309 147.785C27.971 147.625 28.2533 147.539 28.542 147.539C28.9292 147.539 29.3006 147.693 29.5744 147.967C29.8482 148.24 30.002 148.612 30.002 148.999V148.999Z" fill="white"/>
<path d="M104.05 111.34C104.856 111.34 105.51 110.686 105.51 109.88C105.51 109.074 104.856 108.42 104.05 108.42C103.244 108.42 102.59 109.074 102.59 109.88C102.59 110.686 103.244 111.34 104.05 111.34Z" fill="white"/>
<path d="M108.42 183C108.422 183.289 108.338 183.572 108.179 183.814C108.02 184.055 107.792 184.244 107.526 184.356C107.259 184.468 106.965 184.498 106.681 184.443C106.397 184.388 106.136 184.249 105.931 184.046C105.726 183.842 105.586 183.582 105.529 183.298C105.472 183.015 105.5 182.721 105.61 182.453C105.72 182.186 105.907 181.957 106.148 181.797C106.388 181.636 106.671 181.55 106.96 181.55C107.345 181.55 107.715 181.702 107.989 181.974C108.262 182.246 108.417 182.614 108.42 183V183Z" fill="white"/>
<path d="M76.8809 174.139C76.8829 174.429 76.7987 174.713 76.639 174.954C76.4794 175.196 76.2514 175.385 75.9843 175.496C75.7171 175.608 75.4227 175.638 75.1386 175.582C74.8544 175.526 74.5933 175.387 74.3886 175.182C74.1838 174.977 74.0445 174.716 73.9885 174.432C73.9325 174.148 73.9622 173.853 74.074 173.586C74.1857 173.319 74.3744 173.091 74.616 172.931C74.8577 172.772 75.1413 172.688 75.4309 172.689C75.8155 172.689 76.1843 172.842 76.4562 173.114C76.7281 173.386 76.8809 173.755 76.8809 174.139V174.139Z" fill="white"/>
<path d="M76.8809 78.6993C76.8809 78.9885 76.795 79.2711 76.6342 79.5115C76.4733 79.7518 76.2447 79.9389 75.9773 80.0491C75.71 80.1593 75.4159 80.1876 75.1324 80.1305C74.8489 80.0733 74.5888 79.9333 74.385 79.7281C74.1812 79.5229 74.043 79.2618 73.9878 78.9779C73.9326 78.6941 73.9629 78.4002 74.075 78.1336C74.187 77.867 74.3757 77.6397 74.6171 77.4805C74.8585 77.3213 75.1418 77.2373 75.4309 77.2393C75.6222 77.2393 75.8116 77.2771 75.9881 77.3506C76.1647 77.4241 76.325 77.5318 76.4598 77.6675C76.5946 77.8032 76.7012 77.9643 76.7734 78.1413C76.8457 78.3184 76.8823 78.508 76.8809 78.6993V78.6993Z" fill="white"/>
<path d="M239.002 207.329C239.002 207.618 238.916 207.901 238.755 208.141C238.594 208.382 238.366 208.569 238.098 208.679C237.831 208.789 237.537 208.817 237.253 208.76C236.97 208.703 236.71 208.563 236.506 208.358C236.302 208.153 236.164 207.892 236.109 207.608C236.054 207.324 236.084 207.03 236.196 206.763C236.308 206.497 236.497 206.27 236.738 206.11C236.98 205.951 237.263 205.867 237.552 205.869C237.743 205.869 237.933 205.907 238.109 205.981C238.286 206.054 238.446 206.162 238.581 206.297C238.716 206.433 238.822 206.594 238.895 206.771C238.967 206.948 239.003 207.138 239.002 207.329V207.329Z" fill="white"/>
<path d="M598.002 191.269C598.004 191.559 597.92 191.842 597.761 192.083C597.602 192.325 597.374 192.513 597.108 192.625C596.841 192.737 596.547 192.768 596.263 192.712C595.979 192.657 595.718 192.519 595.513 192.315C595.308 192.111 595.168 191.851 595.111 191.568C595.054 191.284 595.082 190.99 595.192 190.723C595.302 190.456 595.49 190.227 595.73 190.066C595.97 189.905 596.253 189.819 596.542 189.819C596.927 189.819 597.297 189.972 597.571 190.243C597.844 190.515 597.999 190.884 598.002 191.269V191.269Z" fill="white"/>
<path d="M509.842 86.8699C509.844 87.1591 509.76 87.4424 509.601 87.6838C509.441 87.9252 509.214 88.1139 508.948 88.2259C508.681 88.3379 508.387 88.3683 508.103 88.3131C507.819 88.2579 507.558 88.1196 507.353 87.9158C507.148 87.7121 507.008 87.4519 506.951 87.1685C506.894 86.885 506.922 86.5909 507.032 86.3235C507.142 86.0562 507.329 85.8276 507.57 85.6667C507.81 85.5058 508.093 85.4199 508.382 85.4199C508.767 85.4199 509.137 85.5724 509.411 85.844C509.684 86.1157 509.839 86.4844 509.842 86.8699Z" fill="white"/>
<path d="M285.572 238.38C285.572 238.669 285.487 238.951 285.326 239.191C285.166 239.431 284.938 239.618 284.671 239.729C284.404 239.839 284.111 239.868 283.828 239.812C283.544 239.756 283.284 239.616 283.08 239.412C282.876 239.208 282.737 238.948 282.68 238.665C282.624 238.382 282.653 238.088 282.763 237.821C282.874 237.554 283.061 237.326 283.301 237.166C283.541 237.006 283.824 236.92 284.112 236.92C284.5 236.92 284.871 237.074 285.145 237.348C285.419 237.621 285.572 237.993 285.572 238.38Z" fill="white"/>
<path d="M252.581 230.999C253.387 230.999 254.041 230.345 254.041 229.539C254.041 228.733 253.387 228.079 252.581 228.079C251.775 228.079 251.121 228.733 251.121 229.539C251.121 230.345 251.775 230.999 252.581 230.999Z" fill="white"/>
<path d="M222.072 80.1593C222.072 80.4484 221.986 80.7311 221.826 80.9714C221.665 81.2117 221.436 81.3988 221.169 81.5091C220.901 81.6193 220.607 81.6476 220.324 81.5904C220.04 81.5333 219.78 81.3932 219.576 81.188C219.373 80.9829 219.234 80.7218 219.179 80.4379C219.124 80.154 219.154 79.8602 219.266 79.5936C219.378 79.327 219.567 79.0997 219.809 78.9404C220.05 78.7812 220.333 78.6973 220.622 78.6993C220.814 78.6992 221.003 78.7371 221.18 78.8106C221.356 78.8841 221.516 78.9918 221.651 79.1275C221.786 79.2632 221.893 79.4242 221.965 79.6013C222.037 79.7784 222.074 79.968 222.072 80.1593V80.1593Z" fill="white"/>
<path d="M251.131 29.8194C251.131 30.1081 251.045 30.3904 250.885 30.6305C250.724 30.8706 250.496 31.0577 250.23 31.1682C249.963 31.2787 249.669 31.3077 249.386 31.2513C249.103 31.195 248.843 31.0559 248.639 30.8517C248.434 30.6476 248.295 30.3874 248.239 30.1042C248.183 29.821 248.212 29.5274 248.322 29.2607C248.433 28.9939 248.62 28.7659 248.86 28.6054C249.1 28.445 249.382 28.3594 249.671 28.3594C250.058 28.3594 250.43 28.5132 250.703 28.787C250.977 29.0608 251.131 29.4322 251.131 29.8194V29.8194Z" fill="white"/>
<path d="M190.541 71.3194C190.541 71.6086 190.455 71.8913 190.294 72.1316C190.133 72.3719 189.905 72.559 189.637 72.6692C189.37 72.7794 189.076 72.8077 188.793 72.7506C188.509 72.6934 188.249 72.5534 188.045 72.3482C187.841 72.143 187.703 71.8819 187.648 71.5981C187.593 71.3142 187.623 71.0203 187.735 70.7537C187.847 70.4871 188.036 70.2598 188.277 70.1006C188.519 69.9414 188.802 69.8574 189.091 69.8594C189.282 69.8594 189.472 69.8972 189.648 69.9707C189.825 70.0442 189.985 70.1519 190.12 70.2876C190.255 70.4233 190.361 70.5844 190.434 70.7614C190.506 70.9385 190.542 71.1282 190.541 71.3194V71.3194Z" fill="white"/>
<path d="M351.159 105.959C351.966 105.959 352.619 105.305 352.619 104.499C352.619 103.693 351.966 103.039 351.159 103.039C350.353 103.039 349.699 103.693 349.699 104.499C349.699 105.305 350.353 105.959 351.159 105.959Z" fill="white"/>
<path d="M294.24 80.1592C294.24 80.448 294.155 80.7303 293.994 80.9704C293.834 81.2104 293.606 81.3976 293.339 81.5081C293.072 81.6186 292.779 81.6475 292.495 81.5912C292.212 81.5348 291.952 81.3958 291.748 81.1916C291.544 80.9874 291.405 80.7273 291.348 80.4441C291.292 80.1608 291.321 79.8673 291.431 79.6005C291.542 79.3337 291.729 79.1057 291.969 78.9453C292.209 78.7848 292.492 78.6992 292.78 78.6992C293.168 78.6992 293.539 78.853 293.813 79.1268C294.086 79.4006 294.24 79.772 294.24 80.1592Z" fill="white"/>
<path d="M367.701 126.71C367.703 126.999 367.619 127.282 367.46 127.524C367.301 127.765 367.074 127.954 366.807 128.066C366.54 128.178 366.246 128.208 365.963 128.153C365.679 128.098 365.418 127.959 365.212 127.756C365.007 127.552 364.867 127.292 364.81 127.008C364.753 126.725 364.781 126.431 364.891 126.163C365.002 125.896 365.189 125.667 365.429 125.507C365.669 125.346 365.952 125.26 366.241 125.26C366.627 125.26 366.997 125.412 367.27 125.684C367.544 125.955 367.699 126.324 367.701 126.71V126.71Z" fill="white"/>
<path d="M358.522 77.0596C358.522 77.3484 358.436 77.6306 358.276 77.8707C358.115 78.1108 357.887 78.298 357.62 78.4085C357.353 78.519 357.06 78.5479 356.777 78.4916C356.494 78.4352 356.233 78.2962 356.029 78.092C355.825 77.8878 355.686 77.6277 355.63 77.3444C355.573 77.0612 355.602 76.7677 355.713 76.5009C355.823 76.2341 356.01 76.0061 356.25 75.8457C356.491 75.6852 356.773 75.5996 357.062 75.5996C357.448 75.6022 357.818 75.7569 358.091 76.0301C358.364 76.3034 358.519 76.6732 358.522 77.0596Z" fill="white"/>
<path d="M49.002 126.59C49.002 126.879 48.9161 127.162 48.7553 127.402C48.5944 127.642 48.3658 127.83 48.0984 127.94C47.8311 128.05 47.537 128.078 47.2535 128.021C46.97 127.964 46.7099 127.824 46.5061 127.619C46.3023 127.414 46.1641 127.152 46.1089 126.869C46.0537 126.585 46.084 126.291 46.1961 126.024C46.3081 125.758 46.4968 125.53 46.7382 125.371C46.9796 125.212 47.2629 125.128 47.552 125.13C47.7433 125.13 47.9327 125.168 48.1092 125.241C48.2858 125.315 48.4461 125.422 48.5809 125.558C48.7157 125.694 48.8223 125.855 48.8945 126.032C48.9668 126.209 49.0034 126.399 49.002 126.59Z" fill="white"/>
<path d="M22.8106 37.7393C22.8106 38.0281 22.725 38.3103 22.5646 38.5504C22.4041 38.7905 22.1761 38.9777 21.9093 39.0882C21.6426 39.1987 21.349 39.2276 21.0658 39.1712C20.7826 39.1149 20.5224 38.9759 20.3183 38.7717C20.1141 38.5675 19.975 38.3073 19.9187 38.0241C19.8623 37.7409 19.8913 37.4474 20.0018 37.1806C20.1123 36.9138 20.2994 36.6858 20.5395 36.5254C20.7796 36.3649 21.0619 36.2793 21.3506 36.2793C21.7378 36.2793 22.1092 36.4331 22.383 36.7069C22.6568 36.9807 22.8106 37.3521 22.8106 37.7393Z" fill="white"/>
<path d="M150.152 74.8096C150.152 75.0074 150.094 75.2007 149.984 75.3651C149.874 75.5296 149.718 75.6578 149.535 75.7335C149.352 75.8091 149.151 75.8289 148.957 75.7904C148.763 75.7518 148.585 75.6565 148.445 75.5167C148.305 75.3768 148.21 75.1986 148.172 75.0047C148.133 74.8107 148.153 74.6096 148.228 74.4269C148.304 74.2442 148.432 74.088 148.597 73.9781C148.761 73.8682 148.955 73.8096 149.152 73.8096C149.418 73.8096 149.672 73.9149 149.859 74.1025C150.047 74.29 150.152 74.5444 150.152 74.8096Z" fill="white"/>
<path d="M89.4688 27.3594C89.4688 27.5572 89.4101 27.7505 89.3002 27.9149C89.1903 28.0794 89.0342 28.2076 88.8514 28.2833C88.6687 28.3589 88.4676 28.3787 88.2737 28.3402C88.0797 28.3016 87.9015 28.2063 87.7616 28.0665C87.6218 27.9266 87.5265 27.7484 87.488 27.5545C87.4494 27.3605 87.4692 27.1594 87.5449 26.9767C87.6206 26.794 87.7487 26.6378 87.9132 26.5279C88.0776 26.418 88.271 26.3594 88.4688 26.3594C88.734 26.3594 88.9883 26.4647 89.1759 26.6523C89.3634 26.8398 89.4688 27.0942 89.4688 27.3594Z" fill="white"/>
<path d="M32.332 83.6191C32.8843 83.6191 33.332 83.1714 33.332 82.6191C33.332 82.0669 32.8843 81.6191 32.332 81.6191C31.7797 81.6191 31.332 82.0669 31.332 82.6191C31.332 83.1714 31.7797 83.6191 32.332 83.6191Z" fill="white"/>
<path d="M100.289 143.93C100.289 144.195 100.184 144.449 99.9962 144.637C99.8086 144.824 99.5543 144.93 99.2891 144.93C99.0238 144.93 98.7695 144.824 98.582 144.637C98.3944 144.449 98.2891 144.195 98.2891 143.93C98.2891 143.664 98.3944 143.41 98.582 143.223C98.7695 143.035 99.0238 142.93 99.2891 142.93C99.5543 142.93 99.8086 143.035 99.9962 143.223C100.184 143.41 100.289 143.664 100.289 143.93Z" fill="white"/>
<path d="M48.8008 203.909C49.3531 203.909 49.8008 203.461 49.8008 202.909C49.8008 202.357 49.3531 201.909 48.8008 201.909C48.2485 201.909 47.8008 202.357 47.8008 202.909C47.8008 203.461 48.2485 203.909 48.8008 203.909Z" fill="white"/>
<path d="M225.77 129.05C225.77 129.248 225.711 129.441 225.601 129.605C225.491 129.77 225.335 129.898 225.152 129.974C224.969 130.049 224.768 130.069 224.574 130.031C224.38 129.992 224.202 129.897 224.062 129.757C223.923 129.617 223.827 129.439 223.789 129.245C223.75 129.051 223.77 128.85 223.846 128.667C223.921 128.484 224.05 128.328 224.214 128.218C224.378 128.108 224.572 128.05 224.77 128.05C225.035 128.05 225.289 128.155 225.477 128.343C225.664 128.53 225.77 128.785 225.77 129.05Z" fill="white"/>
<path d="M283.66 83.6191C283.66 83.8169 283.601 84.0103 283.492 84.1747C283.382 84.3392 283.226 84.4673 283.043 84.543C282.86 84.6187 282.659 84.6385 282.465 84.5999C282.271 84.5613 282.093 84.4661 281.953 84.3262C281.813 84.1864 281.718 84.0082 281.679 83.8142C281.641 83.6203 281.661 83.4192 281.736 83.2365C281.812 83.0537 281.94 82.8975 282.105 82.7877C282.269 82.6778 282.462 82.6191 282.66 82.6191C282.925 82.6191 283.18 82.7245 283.367 82.912C283.555 83.0996 283.66 83.3539 283.66 83.6191Z" fill="white"/>
<path d="M474.23 223.869C474.783 223.869 475.23 223.421 475.23 222.869C475.23 222.317 474.783 221.869 474.23 221.869C473.678 221.869 473.23 222.317 473.23 222.869C473.23 223.421 473.678 223.869 474.23 223.869Z" fill="white"/>
<path d="M663.41 190.819C663.962 190.819 664.41 190.372 664.41 189.819C664.41 189.267 663.962 188.819 663.41 188.819C662.858 188.819 662.41 189.267 662.41 189.819C662.41 190.372 662.858 190.819 663.41 190.819Z" fill="white"/>
<path d="M599.68 251.659C599.68 251.857 599.621 252.05 599.511 252.215C599.401 252.379 599.245 252.507 599.062 252.583C598.88 252.659 598.679 252.679 598.485 252.64C598.291 252.601 598.112 252.506 597.973 252.366C597.833 252.226 597.737 252.048 597.699 251.854C597.66 251.66 597.68 251.459 597.756 251.276C597.831 251.094 597.96 250.938 598.124 250.828C598.289 250.718 598.482 250.659 598.68 250.659C598.945 250.659 599.199 250.765 599.387 250.952C599.574 251.14 599.68 251.394 599.68 251.659Z" fill="white"/>
<path d="M349.25 42.3896C349.802 42.3896 350.25 41.9419 350.25 41.3896C350.25 40.8374 349.802 40.3896 349.25 40.3896C348.698 40.3896 348.25 40.8374 348.25 41.3896C348.25 41.9419 348.698 42.3896 349.25 42.3896Z" fill="white"/>
<path d="M557.512 101.02C558.064 101.02 558.512 100.572 558.512 100.02C558.512 99.4672 558.064 99.0195 557.512 99.0195C556.959 99.0195 556.512 99.4672 556.512 100.02C556.512 100.572 556.959 101.02 557.512 101.02Z" fill="white"/>
<path d="M551.871 115.27C551.871 115.467 551.812 115.661 551.703 115.825C551.593 115.99 551.437 116.118 551.254 116.193C551.071 116.269 550.87 116.289 550.676 116.25C550.482 116.212 550.304 116.116 550.164 115.977C550.024 115.837 549.929 115.659 549.89 115.465C549.852 115.271 549.872 115.07 549.947 114.887C550.023 114.704 550.151 114.548 550.316 114.438C550.48 114.328 550.673 114.27 550.871 114.27C551.136 114.27 551.391 114.375 551.578 114.562C551.766 114.75 551.871 115.004 551.871 115.27Z" fill="white"/>
<path d="M160.471 43.6799C160.471 43.9682 160.385 44.2501 160.225 44.4899C160.065 44.7298 159.838 44.917 159.572 45.0277C159.306 45.1385 159.013 45.168 158.73 45.1125C158.447 45.057 158.187 44.9189 157.982 44.7157C157.777 44.5125 157.638 44.2533 157.58 43.9708C157.523 43.6882 157.55 43.395 157.659 43.128C157.768 42.8611 157.954 42.6324 158.192 42.4708C158.431 42.3091 158.712 42.2218 159.001 42.2199C159.194 42.2172 159.385 42.2531 159.564 42.3254C159.743 42.3977 159.906 42.505 160.043 42.6409C160.18 42.7769 160.288 42.9388 160.361 43.1172C160.435 43.2956 160.472 43.4869 160.471 43.6799V43.6799Z" fill="white"/>
<path d="M122.39 61.8497C123.196 61.8497 123.85 61.196 123.85 60.3897C123.85 59.5834 123.196 58.9297 122.39 58.9297C121.583 58.9297 120.93 59.5834 120.93 60.3897C120.93 61.196 121.583 61.8497 122.39 61.8497Z" fill="white"/>
</g>
<defs>
<radialGradient id="paint0_radial_840_3510" cx="0" cy="0" r="1" gradientUnits="userSpaceOnUse" gradientTransform="translate(365.22 495.201) scale(631.74 701.231)">
<stop stop-color="#FB8399"/>
<stop offset="0.12" stop-color="#CE6F8B"/>
<stop offset="0.18" stop-color="#B86592"/>
<stop offset="0.33" stop-color="#8952A3"/>
<stop offset="0.41" stop-color="#774CA9"/>
<stop offset="0.45" stop-color="#684497"/>
<stop offset="0.55" stop-color="#493370"/>
<stop offset="0.64" stop-color="#312753"/>
<stop offset="0.72" stop-color="#232040"/>
<stop offset="0.78" stop-color="#1D1D3A"/>
</radialGradient>
<radialGradient id="paint1_radial_840_3510" cx="0" cy="0" r="1" gradientUnits="userSpaceOnUse" gradientTransform="translate(712.262 75.6779) rotate(-56.932) scale(39.2835 39.2835)">
<stop stop-color="white"/>
<stop offset="0.06" stop-color="white" stop-opacity="0.8"/>
<stop offset="0.12" stop-color="white" stop-opacity="0.62"/>
<stop offset="0.19" stop-color="white" stop-opacity="0.45"/>
<stop offset="0.26" stop-color="white" stop-opacity="0.31"/>
<stop offset="0.33" stop-color="white" stop-opacity="0.2"/>
<stop offset="0.41" stop-color="white" stop-opacity="0.11"/>
<stop offset="0.49" stop-color="white" stop-opacity="0.05"/>
<stop offset="0.59" stop-color="white" stop-opacity="0.01"/>
<stop offset="0.72" stop-color="white" stop-opacity="0"/>
</radialGradient>
<linearGradient id="paint2_linear_840_3510" x1="472" y1="472.56" x2="872.58" y2="472.56" gradientUnits="userSpaceOnUse">
<stop stop-color="#FD75A8"/>
<stop offset="1" stop-color="#5A2D81"/>
</linearGradient>
<linearGradient id="paint3_linear_840_3510" x1="214.611" y1="519.489" x2="166.091" y2="372.119" gradientUnits="userSpaceOnUse">
<stop stop-color="#FD75A8"/>
<stop offset="1" stop-color="#5A2D81"/>
</linearGradient>
<linearGradient id="paint4_linear_840_3510" x1="57.6519" y1="519.01" x2="448.082" y2="519.01" gradientUnits="userSpaceOnUse">
<stop stop-color="#FD75A8"/>
<stop offset="1" stop-color="#5A2D81"/>
</linearGradient>
<linearGradient id="paint5_linear_840_3510" x1="193.481" y1="519.299" x2="761.051" y2="519.299" gradientUnits="userSpaceOnUse">
<stop stop-color="#FD75A8"/>
<stop offset="1" stop-color="#5A2D81"/>
</linearGradient>
<clipPath id="clip0_840_3510">
<rect width="750" height="500" fill="white"/>
</clipPath>
</defs>
</svg>
